<svg xmlns="http://www.w3.org/2000/svg" xmlns:xlink="http://www.w3.org/1999/xlink" width="150" viewBox="0 0 150 75" height="75" version="1.0"><defs><g id="a"><path d="M 6 -16.609375 C 6.125 -16.609375 6.203125 -16.570312 6.234375 -16.5 L 6.25 -16.34375 C 6.269531 -16.257812 6.3125 -16.097656 6.375 -15.859375 C 6.4375 -15.617188 6.539062 -15.257812 6.6875 -14.78125 C 6.78125 -14.40625 7.054688 -13.59375 7.515625 -12.34375 C 7.984375 -11.09375 8.351562 -10.113281 8.625 -9.40625 C 8.8125 -8.914062 9.125 -8.054688 9.5625 -6.828125 L 9.96875 -5.65625 L 10.21875 -4.9375 C 10.289062 -4.757812 10.375 -4.59375 10.46875 -4.4375 L 10.515625 -4.359375 C 10.546875 -4.273438 10.53125 -4.222656 10.46875 -4.203125 C 10.414062 -4.179688 10.382812 -4.164062 10.375 -4.15625 C 10.269531 -4.09375 10.0625 -4 9.75 -3.875 C 9.664062 -3.84375 9.609375 -3.867188 9.578125 -3.953125 L 8.578125 -6.5625 C 8.492188 -6.75 8.414062 -6.941406 8.34375 -7.140625 C 8.269531 -7.347656 8.203125 -7.535156 8.140625 -7.703125 L 7.84375 -8.4375 L 7.34375 -9.734375 L 5.9375 -9.140625 C 5.445312 -8.929688 4.773438 -8.664062 3.921875 -8.34375 L 2.265625 -7.6875 C 1.828125 -7.519531 1.476562 -7.394531 1.21875 -7.3125 C 1.300781 -7.125 1.351562 -6.96875 1.375 -6.84375 C 1.5 -6.476562 1.628906 -6.125 1.765625 -5.78125 L 2.46875 -3.875 C 2.832031 -2.945312 3.101562 -2.347656 3.28125 -2.078125 C 3.351562 -1.953125 3.394531 -1.867188 3.40625 -1.828125 C 3.46875 -1.660156 3.460938 -1.539062 3.390625 -1.46875 C 3.328125 -1.40625 3.242188 -1.351562 3.140625 -1.3125 C 3.035156 -1.28125 2.96875 -1.257812 2.9375 -1.25 C 2.507812 -1.09375 2.046875 -0.890625 1.546875 -0.640625 C 1.359375 -0.546875 1.21875 -0.546875 1.125 -0.640625 C 1.039062 -0.734375 0.960938 -0.882812 0.890625 -1.09375 C 0.828125 -1.3125 0.773438 -1.476562 0.734375 -1.59375 L -1.671875 -7.640625 L -3.390625 -12.203125 C -3.484375 -12.441406 -3.519531 -12.601562 -3.5 -12.6875 C -3.476562 -12.78125 -3.410156 -12.847656 -3.296875 -12.890625 L -2.90625 -13.03125 C -2.84375 -13.050781 -2.707031 -13.113281 -2.5 -13.21875 C -2.445312 -13.25 -2.351562 -13.289062 -2.21875 -13.34375 L -1.75 -13.5 C -1.65625 -13.53125 -1.523438 -13.578125 -1.359375 -13.640625 C -1.234375 -13.691406 -1.140625 -13.679688 -1.078125 -13.609375 C -1.015625 -13.546875 -0.96875 -13.472656 -0.9375 -13.390625 C -0.914062 -13.304688 -0.898438 -13.25 -0.890625 -13.21875 C -0.679688 -12.675781 -0.4375 -11.96875 -0.15625 -11.09375 L 0.453125 -9.328125 L 0.8125 -8.28125 L 1.875 -8.640625 L 2.53125 -8.875 C 3.101562 -9.070312 3.492188 -9.210938 3.703125 -9.296875 C 4.617188 -9.648438 5.320312 -9.925781 5.8125 -10.125 C 6.382812 -10.351562 6.8125 -10.53125 7.09375 -10.65625 L 6.890625 -11.1875 L 6.515625 -12.15625 C 6.347656 -12.59375 6.015625 -13.507812 5.515625 -14.90625 L 5.078125 -16.15625 C 5.046875 -16.257812 5.085938 -16.335938 5.203125 -16.390625 L 5.40625 -16.453125 C 5.46875 -16.453125 5.5625 -16.472656 5.6875 -16.515625 C 5.820312 -16.566406 5.925781 -16.597656 6 -16.609375 Z M 9.5625 -4 L 9.578125 -3.953125 Z M 9.5625 -4"/></g><g id="b"><path d="M 0.1875 -0.0625 C 0.0820312 -0.03125 0.03125 -0.0976562 0.03125 -0.265625 C 0.0195312 -0.296875 0.015625 -0.328125 0.015625 -0.359375 C 0.015625 -0.378906 0.015625 -0.410156 0.015625 -0.453125 C 0.015625 -0.492188 0.0078125 -0.554688 0 -0.640625 L -0.03125 -1.34375 C -0.0195312 -1.425781 -0.015625 -1.566406 -0.015625 -1.765625 C -0.015625 -1.972656 -0.03125 -2.148438 -0.0625 -2.296875 C -0.09375 -2.609375 -0.113281 -3.082031 -0.125 -3.71875 L -0.140625 -4.28125 C -0.148438 -5.09375 -0.175781 -5.660156 -0.21875 -5.984375 L -0.28125 -7.015625 C -0.269531 -7.441406 -0.269531 -7.707031 -0.28125 -7.8125 C -0.320312 -8.207031 -0.34375 -8.703125 -0.34375 -9.296875 L -0.390625 -9.828125 L -0.390625 -10.25 C -0.398438 -10.695312 -0.394531 -11.023438 -0.375 -11.234375 C -0.375 -11.296875 -0.363281 -11.5625 -0.34375 -12.03125 C -0.332031 -12.5 -0.34375 -12.875 -0.375 -13.15625 C -0.375 -13.46875 -0.351562 -13.710938 -0.3125 -13.890625 C -0.269531 -14.066406 -0.171875 -14.179688 -0.015625 -14.234375 C 0.046875 -14.242188 0.125 -14.203125 0.21875 -14.109375 C 0.3125 -14.023438 0.410156 -13.914062 0.515625 -13.78125 C 0.628906 -13.644531 0.710938 -13.535156 0.765625 -13.453125 C 0.921875 -13.253906 1.265625 -12.75 1.796875 -11.9375 L 2.09375 -11.453125 C 2.144531 -11.367188 2.53125 -10.847656 3.25 -9.890625 L 3.90625 -9.015625 L 4.5 -8.28125 C 5.132812 -7.4375 5.53125 -6.925781 5.6875 -6.75 C 6.5 -5.625 6.984375 -4.9375 7.140625 -4.6875 C 7.328125 -4.40625 7.582031 -4.0625 7.90625 -3.65625 C 8.238281 -3.25 8.429688 -3.015625 8.484375 -2.953125 C 8.546875 -2.878906 8.578125 -2.828125 8.578125 -2.796875 C 8.597656 -2.742188 8.546875 -2.695312 8.421875 -2.65625 L 7.421875 -2.34375 C 7.367188 -2.332031 7.320312 -2.332031 7.28125 -2.34375 C 7.25 -2.351562 7.207031 -2.382812 7.15625 -2.4375 C 7.082031 -2.5625 6.953125 -2.753906 6.765625 -3.015625 C 6.566406 -3.285156 6.410156 -3.535156 6.296875 -3.765625 C 6.203125 -3.941406 6.078125 -4.140625 5.921875 -4.359375 C 5.765625 -4.585938 5.632812 -4.753906 5.53125 -4.859375 C 5.351562 -5.054688 5.175781 -5.285156 5 -5.546875 L 4.65625 -6.015625 C 4.570312 -6.117188 4.507812 -6.179688 4.46875 -6.203125 C 4.425781 -6.222656 4.367188 -6.222656 4.296875 -6.203125 C 4.046875 -6.128906 3.863281 -6.066406 3.75 -6.015625 L 2.984375 -5.734375 C 2.890625 -5.691406 2.445312 -5.550781 1.65625 -5.3125 L 0.5625 -4.953125 L 0.53125 -4.953125 C 0.457031 -4.929688 0.425781 -4.84375 0.4375 -4.6875 L 0.453125 -4.5 L 0.5 -4.140625 C 0.488281 -4.054688 0.519531 -3.6875 0.59375 -3.03125 C 0.613281 -2.8125 0.628906 -2.53125 0.640625 -2.1875 C 0.703125 -1.9375 0.71875 -1.71875 0.6875 -1.53125 C 0.675781 -1.488281 0.671875 -1.394531 0.671875 -1.25 C 0.671875 -1.113281 0.671875 -1 0.671875 -0.90625 C 0.660156 -0.800781 0.675781 -0.628906 0.71875 -0.390625 C 0.695312 -0.390625 0.6875 -0.363281 0.6875 -0.3125 C 0.695312 -0.257812 0.6875 -0.226562 0.65625 -0.21875 C 0.632812 -0.207031 0.597656 -0.191406 0.546875 -0.171875 Z M 1.859375 -6.71875 C 2.003906 -6.78125 2.207031 -6.851562 2.46875 -6.9375 L 3.4375 -7.234375 C 3.59375 -7.285156 3.65625 -7.347656 3.625 -7.421875 C 3.613281 -7.484375 3.53125 -7.609375 3.375 -7.796875 C 3.25 -7.941406 3.035156 -8.238281 2.734375 -8.6875 C 2.503906 -9.050781 2.285156 -9.359375 2.078125 -9.609375 C 1.847656 -9.929688 1.585938 -10.316406 1.296875 -10.765625 C 1.015625 -11.210938 0.832031 -11.503906 0.75 -11.640625 C 0.375 -12.210938 0.15625 -12.492188 0.09375 -12.484375 C 0.0625 -12.460938 0.0546875 -12.28125 0.078125 -11.9375 L 0.09375 -11.5 C 0.101562 -11.15625 0.117188 -10.71875 0.140625 -10.1875 C 0.171875 -9.65625 0.1875 -9.207031 0.1875 -8.84375 C 0.21875 -8.507812 0.238281 -8.085938 0.25 -7.578125 C 0.269531 -7.066406 0.273438 -6.710938 0.265625 -6.515625 C 0.265625 -6.421875 0.265625 -6.367188 0.265625 -6.359375 C 0.296875 -6.285156 0.351562 -6.25 0.4375 -6.25 C 0.519531 -6.25 0.597656 -6.265625 0.671875 -6.296875 C 0.753906 -6.328125 0.8125 -6.34375 0.84375 -6.34375 Z M 1.859375 -6.71875"/></g><g id="c"><path d="M 5.390625 -1.15625 C 4.597656 -0.945312 3.765625 -1.046875 2.890625 -1.453125 C 2.023438 -1.859375 1.242188 -2.515625 0.546875 -3.421875 C -0.148438 -4.328125 -0.65625 -5.398438 -0.96875 -6.640625 C -1.28125 -7.847656 -1.351562 -8.992188 -1.1875 -10.078125 C -1.019531 -11.160156 -0.675781 -12.054688 -0.15625 -12.765625 C 0.351562 -13.472656 0.957031 -13.914062 1.65625 -14.09375 C 2.507812 -14.3125 3.25 -14.3125 3.875 -14.09375 C 4.5 -13.882812 4.96875 -13.644531 5.28125 -13.375 C 5.351562 -13.3125 5.414062 -13.253906 5.46875 -13.203125 C 5.53125 -13.148438 5.566406 -13.09375 5.578125 -13.03125 C 5.597656 -12.96875 5.554688 -12.851562 5.453125 -12.6875 C 5.003906 -12.101562 4.703125 -11.613281 4.546875 -11.21875 C 4.460938 -11.039062 4.382812 -10.898438 4.3125 -10.796875 C 4.25 -10.691406 4.179688 -10.628906 4.109375 -10.609375 C 4.023438 -10.585938 3.910156 -10.625 3.765625 -10.71875 C 3.429688 -10.9375 3.179688 -11.082031 3.015625 -11.15625 C 2.847656 -11.238281 2.664062 -11.253906 2.46875 -11.203125 C 2.164062 -11.128906 1.894531 -10.925781 1.65625 -10.59375 C 1.425781 -10.257812 1.285156 -9.769531 1.234375 -9.125 C 1.179688 -8.488281 1.273438 -7.707031 1.515625 -6.78125 C 1.742188 -5.875 2.054688 -5.191406 2.453125 -4.734375 C 2.847656 -4.273438 3.238281 -3.984375 3.625 -3.859375 C 4.007812 -3.734375 4.320312 -3.703125 4.5625 -3.765625 C 4.789062 -3.828125 5 -3.960938 5.1875 -4.171875 C 5.375 -4.390625 5.535156 -4.597656 5.671875 -4.796875 C 5.679688 -4.835938 5.707031 -4.894531 5.75 -4.96875 C 5.789062 -5.050781 5.835938 -5.097656 5.890625 -5.109375 C 5.953125 -5.117188 6.03125 -5.109375 6.125 -5.078125 L 7.890625 -4.625 C 7.941406 -4.613281 8.023438 -4.597656 8.140625 -4.578125 C 8.253906 -4.566406 8.332031 -4.546875 8.375 -4.515625 C 8.425781 -4.492188 8.460938 -4.453125 8.484375 -4.390625 C 8.492188 -4.328125 8.492188 -4.253906 8.484375 -4.171875 C 8.328125 -3.660156 8.023438 -3.09375 7.578125 -2.46875 C 7.128906 -1.851562 6.398438 -1.414062 5.390625 -1.15625 Z M 5.390625 -1.15625"/></g><g id="d"><path d="M 7.9375 -1.4375 C 7.78125 -1.40625 7.644531 -1.40625 7.53125 -1.4375 C 7.414062 -1.476562 7.289062 -1.546875 7.15625 -1.640625 C 7.039062 -1.703125 6.632812 -2.039062 5.9375 -2.65625 C 5.382812 -3.175781 5 -3.519531 4.78125 -3.6875 C 4.519531 -3.84375 4.125 -4.144531 3.59375 -4.59375 L 2.78125 -5.21875 C 2.84375 -4.84375 2.882812 -4.570312 2.90625 -4.40625 L 3.109375 -3.21875 L 3.34375 -1.953125 C 3.425781 -1.484375 3.492188 -1.1875 3.546875 -1.0625 C 3.566406 -1.03125 3.582031 -0.992188 3.59375 -0.953125 C 3.613281 -0.859375 3.601562 -0.796875 3.5625 -0.765625 C 3.519531 -0.742188 3.457031 -0.726562 3.375 -0.71875 L 2.625 -0.5625 L 2.1875 -0.453125 C 1.875 -0.367188 1.644531 -0.3125 1.5 -0.28125 C 1.375 -0.257812 1.300781 -0.253906 1.28125 -0.265625 C 1.195312 -0.242188 1.144531 -0.269531 1.125 -0.34375 C 1.125 -0.382812 1.132812 -0.488281 1.15625 -0.65625 C 1.15625 -0.726562 1.101562 -0.921875 1 -1.234375 C 0.96875 -1.296875 0.9375 -1.378906 0.90625 -1.484375 C 0.875 -1.597656 0.847656 -1.71875 0.828125 -1.84375 C 0.710938 -2.519531 0.523438 -3.601562 0.265625 -5.09375 C 0.015625 -6.59375 -0.117188 -7.445312 -0.140625 -7.65625 C -0.160156 -8.007812 -0.257812 -8.632812 -0.4375 -9.53125 C -0.519531 -9.988281 -0.578125 -10.269531 -0.609375 -10.375 C -0.640625 -10.476562 -0.695312 -10.738281 -0.78125 -11.15625 C -0.851562 -11.53125 -0.914062 -11.898438 -0.96875 -12.265625 C -1.019531 -12.628906 -1.039062 -12.867188 -1.03125 -12.984375 C -1.039062 -13.117188 -0.984375 -13.195312 -0.859375 -13.21875 C -0.796875 -13.226562 -0.734375 -13.226562 -0.671875 -13.21875 C -0.609375 -13.207031 -0.546875 -13.207031 -0.484375 -13.21875 C -0.253906 -13.269531 -0.078125 -13.300781 0.046875 -13.3125 C 0.148438 -13.332031 0.269531 -13.351562 0.40625 -13.375 C 0.539062 -13.394531 0.695312 -13.425781 0.875 -13.46875 L 0.984375 -13.484375 C 1.085938 -13.503906 1.160156 -13.5 1.203125 -13.46875 C 1.242188 -13.4375 1.269531 -13.382812 1.28125 -13.3125 L 1.421875 -12.625 L 1.515625 -12.078125 L 1.671875 -11.328125 C 1.941406 -9.878906 2.09375 -8.953125 2.125 -8.546875 C 2.144531 -8.273438 2.171875 -8.0625 2.203125 -7.90625 L 2.34375 -7.28125 L 2.5 -6.671875 L 2.734375 -7.046875 C 2.773438 -7.140625 2.921875 -7.359375 3.171875 -7.703125 C 3.296875 -7.867188 3.507812 -8.195312 3.8125 -8.6875 C 4.125 -9.1875 4.367188 -9.582031 4.546875 -9.875 C 4.628906 -10.039062 4.8125 -10.359375 5.09375 -10.828125 C 5.382812 -11.304688 5.65625 -11.726562 5.90625 -12.09375 C 6.050781 -12.351562 6.203125 -12.59375 6.359375 -12.8125 C 6.929688 -13.757812 7.234375 -14.28125 7.265625 -14.375 C 7.347656 -14.582031 7.457031 -14.710938 7.59375 -14.765625 C 7.625 -14.765625 7.695312 -14.773438 7.8125 -14.796875 C 7.9375 -14.828125 8.035156 -14.847656 8.109375 -14.859375 C 8.203125 -14.867188 8.253906 -14.835938 8.265625 -14.765625 C 8.273438 -14.710938 8.257812 -14.644531 8.21875 -14.5625 C 8.1875 -14.539062 8.050781 -14.347656 7.8125 -13.984375 C 7.582031 -13.628906 7.398438 -13.367188 7.265625 -13.203125 C 7.160156 -13.066406 6.878906 -12.578125 6.421875 -11.734375 C 5.960938 -10.890625 5.691406 -10.382812 5.609375 -10.21875 C 5.359375 -9.789062 5.050781 -9.289062 4.6875 -8.71875 L 3.890625 -7.484375 C 3.804688 -7.566406 4.066406 -7.359375 4.671875 -6.859375 C 5.109375 -6.503906 5.507812 -6.207031 5.875 -5.96875 C 6.019531 -5.863281 6.472656 -5.5 7.234375 -4.875 C 8.191406 -4.101562 8.722656 -3.691406 8.828125 -3.640625 C 8.972656 -3.546875 9.378906 -3.222656 10.046875 -2.671875 L 10.515625 -2.3125 C 10.566406 -2.257812 10.59375 -2.207031 10.59375 -2.15625 C 10.613281 -2.0625 10.515625 -1.992188 10.296875 -1.953125 Z M 7.9375 -1.4375"/></g><g id="e"><path d="M 4.1875 -0.40625 C 4.03125 -0.394531 3.9375 -0.410156 3.90625 -0.453125 C 3.875 -0.503906 3.851562 -0.59375 3.84375 -0.71875 C 3.832031 -0.851562 3.820312 -0.953125 3.8125 -1.015625 L 3.671875 -3.34375 C 3.546875 -5.375 3.453125 -6.675781 3.390625 -7.25 C 3.359375 -7.570312 3.300781 -8.054688 3.21875 -8.703125 L 3.109375 -9.703125 C 2.203125 -9.617188 1.289062 -9.515625 0.375 -9.390625 L -0.203125 -9.3125 C -0.367188 -9.300781 -0.484375 -9.335938 -0.546875 -9.421875 C -0.617188 -9.503906 -0.644531 -9.601562 -0.625 -9.71875 L -0.640625 -10.1875 C -0.691406 -10.914062 -0.75 -11.582031 -0.8125 -12.1875 C -0.84375 -12.488281 -0.863281 -12.671875 -0.875 -12.734375 L -0.890625 -12.859375 C -0.898438 -13.003906 -0.878906 -13.09375 -0.828125 -13.125 C -0.773438 -13.15625 -0.691406 -13.175781 -0.578125 -13.1875 L 1.265625 -13.375 L 2.3125 -13.484375 C 2.96875 -13.566406 3.425781 -13.625 3.6875 -13.65625 L 4.8125 -13.75 C 5.707031 -13.8125 6.414062 -13.867188 6.9375 -13.921875 C 7.300781 -13.960938 7.539062 -13.992188 7.65625 -14.015625 C 7.925781 -14.046875 8.125 -14.019531 8.25 -13.9375 C 8.375 -13.851562 8.441406 -13.753906 8.453125 -13.640625 C 8.453125 -13.578125 8.453125 -13.410156 8.453125 -13.140625 C 8.460938 -12.878906 8.488281 -12.5625 8.53125 -12.1875 C 8.5625 -11.832031 8.628906 -11.351562 8.734375 -10.75 C 8.765625 -10.414062 8.5625 -10.226562 8.125 -10.1875 L 4.828125 -9.875 L 4.96875 -7.9375 C 4.976562 -7.71875 5.023438 -7.179688 5.109375 -6.328125 C 5.191406 -5.460938 5.28125 -4.617188 5.375 -3.796875 C 5.476562 -2.972656 5.554688 -2.265625 5.609375 -1.671875 L 5.703125 -0.90625 L 5.703125 -0.8125 C 5.722656 -0.695312 5.71875 -0.625 5.6875 -0.59375 C 5.65625 -0.5625 5.613281 -0.539062 5.5625 -0.53125 C 5.507812 -0.53125 5.472656 -0.53125 5.453125 -0.53125 Z M 4.1875 -0.40625"/></g><g id="f"><path d="M 11.1875 -13.65625 C 11.320312 -13.625 11.390625 -13.566406 11.390625 -13.484375 L 11.359375 -13.328125 C 11.347656 -13.242188 11.332031 -13.078125 11.3125 -12.828125 C 11.300781 -12.578125 11.273438 -12.203125 11.234375 -11.703125 C 11.203125 -11.316406 11.195312 -10.457031 11.21875 -9.125 C 11.238281 -7.789062 11.257812 -6.75 11.28125 -6 C 11.300781 -5.46875 11.300781 -4.550781 11.28125 -3.25 L 11.28125 -1.25 C 11.289062 -1.0625 11.3125 -0.878906 11.34375 -0.703125 L 11.375 -0.59375 C 11.375 -0.507812 11.34375 -0.460938 11.28125 -0.453125 C 11.226562 -0.453125 11.195312 -0.453125 11.1875 -0.453125 C 11.0625 -0.421875 10.832031 -0.398438 10.5 -0.390625 C 10.40625 -0.390625 10.359375 -0.4375 10.359375 -0.53125 L 10.28125 -3.328125 C 10.269531 -3.523438 10.257812 -3.734375 10.25 -3.953125 C 10.25 -4.171875 10.25 -4.367188 10.25 -4.546875 L 10.21875 -5.34375 L 10.1875 -6.734375 L 8.65625 -6.640625 C 8.125 -6.609375 7.398438 -6.582031 6.484375 -6.5625 L 4.703125 -6.5 C 4.234375 -6.488281 3.863281 -6.484375 3.59375 -6.484375 C 3.59375 -6.273438 3.59375 -6.113281 3.59375 -6 C 3.582031 -5.601562 3.582031 -5.222656 3.59375 -4.859375 L 3.625 -2.828125 C 3.65625 -1.828125 3.707031 -1.171875 3.78125 -0.859375 C 3.8125 -0.710938 3.828125 -0.617188 3.828125 -0.578125 C 3.835938 -0.398438 3.796875 -0.289062 3.703125 -0.25 C 3.609375 -0.207031 3.503906 -0.1875 3.390625 -0.1875 C 3.285156 -0.1875 3.21875 -0.1875 3.1875 -0.1875 C 2.738281 -0.195312 2.234375 -0.160156 1.671875 -0.078125 C 1.460938 -0.0546875 1.332031 -0.101562 1.28125 -0.21875 C 1.226562 -0.34375 1.203125 -0.515625 1.203125 -0.734375 C 1.210938 -0.960938 1.21875 -1.132812 1.21875 -1.25 L 0.96875 -7.765625 L 0.875 -12.640625 C 0.863281 -12.890625 0.882812 -13.050781 0.9375 -13.125 C 0.988281 -13.207031 1.078125 -13.25 1.203125 -13.25 L 1.625 -13.25 C 1.6875 -13.25 1.832031 -13.265625 2.0625 -13.296875 C 2.125 -13.304688 2.226562 -13.3125 2.375 -13.3125 L 2.859375 -13.3125 C 2.960938 -13.3125 3.101562 -13.3125 3.28125 -13.3125 C 3.414062 -13.3125 3.5 -13.269531 3.53125 -13.1875 C 3.5625 -13.113281 3.578125 -13.03125 3.578125 -12.9375 C 3.578125 -12.851562 3.578125 -12.796875 3.578125 -12.765625 C 3.585938 -12.179688 3.582031 -11.425781 3.5625 -10.5 L 3.546875 -8.640625 L 3.53125 -7.53125 L 4.65625 -7.515625 L 5.359375 -7.53125 C 5.960938 -7.519531 6.378906 -7.519531 6.609375 -7.53125 C 7.585938 -7.5625 8.335938 -7.585938 8.859375 -7.609375 C 9.472656 -7.628906 9.941406 -7.648438 10.265625 -7.671875 L 10.25 -8.234375 L 10.203125 -9.28125 C 10.179688 -9.75 10.175781 -10.726562 10.1875 -12.21875 L 10.1875 -13.53125 C 10.1875 -13.644531 10.25 -13.707031 10.375 -13.71875 L 10.59375 -13.703125 C 10.644531 -13.679688 10.738281 -13.675781 10.875 -13.6875 C 11.019531 -13.6875 11.125 -13.675781 11.1875 -13.65625 Z M 10.34375 -0.578125 L 10.359375 -0.53125 Z M 10.34375 -0.578125"/></g><g id="g"><path d="M 1.390625 0.078125 C 1.316406 0.078125 1.273438 0.0546875 1.265625 0.015625 C 1.253906 -0.0234375 1.253906 -0.109375 1.265625 -0.234375 C 1.242188 -0.367188 1.238281 -0.601562 1.25 -0.9375 C 1.257812 -1.03125 1.257812 -1.132812 1.25 -1.25 C 1.238281 -1.375 1.238281 -1.535156 1.25 -1.734375 L 1.34375 -4.328125 C 1.351562 -4.578125 1.375 -4.816406 1.40625 -5.046875 C 1.4375 -5.285156 1.453125 -5.460938 1.453125 -5.578125 C 1.515625 -6.160156 1.554688 -6.710938 1.578125 -7.234375 C 1.597656 -7.890625 1.597656 -8.40625 1.578125 -8.78125 C 1.566406 -9.207031 1.566406 -9.597656 1.578125 -9.953125 C 1.609375 -10.742188 1.660156 -11.660156 1.734375 -12.703125 C 1.742188 -12.867188 1.78125 -12.976562 1.84375 -13.03125 C 1.90625 -13.09375 1.992188 -13.117188 2.109375 -13.109375 L 2.390625 -13.078125 C 2.503906 -13.066406 2.6875 -13.046875 2.9375 -13.015625 C 3.1875 -12.992188 3.492188 -12.976562 3.859375 -12.96875 C 4.273438 -12.957031 4.765625 -12.972656 5.328125 -13.015625 C 6.015625 -13.035156 6.472656 -13.046875 6.703125 -13.046875 C 7.210938 -13.023438 7.675781 -12.984375 8.09375 -12.921875 L 8.765625 -12.890625 C 8.929688 -12.878906 9.039062 -12.832031 9.09375 -12.75 C 9.144531 -12.675781 9.164062 -12.539062 9.15625 -12.34375 C 9.15625 -12.226562 9.160156 -12.035156 9.171875 -11.765625 C 9.191406 -11.441406 9.195312 -11.160156 9.1875 -10.921875 C 9.175781 -10.671875 9.144531 -10.441406 9.09375 -10.234375 C 9.082031 -10.046875 8.992188 -9.957031 8.828125 -9.96875 C 8.773438 -9.96875 8.703125 -9.976562 8.609375 -10 C 8.523438 -10.03125 8.460938 -10.050781 8.421875 -10.0625 C 8.222656 -10.101562 7.675781 -10.140625 6.78125 -10.171875 L 6.0625 -10.234375 C 5.894531 -10.242188 5.65625 -10.257812 5.34375 -10.28125 C 5.113281 -10.28125 4.945312 -10.28125 4.84375 -10.28125 C 4.457031 -10.257812 4.125 -10.253906 3.84375 -10.265625 L 2.84375 -10.3125 C 2.738281 -10.320312 2.679688 -10.304688 2.671875 -10.265625 C 2.660156 -10.222656 2.648438 -10.117188 2.640625 -9.953125 C 2.628906 -9.734375 2.617188 -9.539062 2.609375 -9.375 C 2.554688 -8.875 2.523438 -8.46875 2.515625 -8.15625 L 2.46875 -7.03125 C 2.457031 -6.769531 2.457031 -6.570312 2.46875 -6.4375 C 2.570312 -6.414062 2.742188 -6.40625 2.984375 -6.40625 C 3.191406 -6.382812 3.628906 -6.363281 4.296875 -6.34375 C 4.578125 -6.332031 4.976562 -6.328125 5.5 -6.328125 C 5.90625 -6.328125 6.171875 -6.328125 6.296875 -6.328125 C 6.472656 -6.316406 6.648438 -6.300781 6.828125 -6.28125 C 7.003906 -6.257812 7.132812 -6.25 7.21875 -6.25 C 7.382812 -6.238281 7.460938 -6.15625 7.453125 -6 C 7.453125 -5.945312 7.441406 -5.875 7.421875 -5.78125 C 7.410156 -5.6875 7.398438 -5.566406 7.390625 -5.421875 L 7.390625 -4.421875 C 7.378906 -4.304688 7.359375 -4.226562 7.328125 -4.1875 C 7.304688 -4.15625 7.265625 -4.140625 7.203125 -4.140625 C 7.160156 -4.140625 7.101562 -4.144531 7.03125 -4.15625 C 6.96875 -4.175781 6.910156 -4.191406 6.859375 -4.203125 C 6.742188 -4.203125 6.53125 -4.210938 6.21875 -4.234375 C 5.914062 -4.265625 5.5 -4.289062 4.96875 -4.3125 C 4.40625 -4.332031 3.914062 -4.320312 3.5 -4.28125 C 3.09375 -4.25 2.84375 -4.234375 2.75 -4.234375 C 2.613281 -4.234375 2.535156 -4.242188 2.515625 -4.265625 C 2.453125 -4.265625 2.410156 -4.273438 2.390625 -4.296875 L 2.328125 -2.40625 C 2.421875 -2.40625 2.492188 -2.40625 2.546875 -2.40625 L 3.0625 -2.40625 L 5.296875 -2.359375 C 5.742188 -2.335938 6.097656 -2.316406 6.359375 -2.296875 L 7.65625 -2.234375 L 8.453125 -2.21875 C 8.597656 -2.207031 8.691406 -2.164062 8.734375 -2.09375 C 8.785156 -2.03125 8.8125 -1.9375 8.8125 -1.8125 L 8.78125 -1.4375 L 8.71875 -0.125 C 8.707031 0.0820312 8.65625 0.203125 8.5625 0.234375 C 8.476562 0.273438 8.351562 0.289062 8.1875 0.28125 C 8.03125 0.269531 7.898438 0.265625 7.796875 0.265625 C 7.253906 0.242188 6.789062 0.222656 6.40625 0.203125 L 4.484375 0.09375 C 4.328125 0.09375 3.570312 0.0859375 2.21875 0.078125 L 1.5 0.0625 Z M 1.390625 0.078125"/></g><g id="h"><path d="M 4.171875 0.5625 C 4.078125 0.550781 4.007812 0.507812 3.96875 0.4375 C 3.9375 0.375 3.910156 0.269531 3.890625 0.125 C 3.847656 0.0195312 3.804688 -0.34375 3.765625 -0.96875 C 3.753906 -1.164062 3.722656 -1.472656 3.671875 -1.890625 C 3.617188 -2.304688 3.570312 -2.582031 3.53125 -2.71875 C 3.46875 -3.007812 3.394531 -3.425781 3.3125 -3.96875 C 3.238281 -4.519531 3.191406 -4.847656 3.171875 -4.953125 C 3.109375 -5.203125 2.957031 -6.238281 2.71875 -8.0625 C 2.675781 -8.3125 2.640625 -8.554688 2.609375 -8.796875 C 2.578125 -9.046875 2.546875 -9.253906 2.515625 -9.421875 L 2.34375 -10.796875 L 2.125 -12.375 C 2.101562 -12.53125 2.097656 -12.65625 2.109375 -12.75 C 2.109375 -12.78125 2.117188 -12.800781 2.140625 -12.8125 C 2.171875 -12.832031 2.207031 -12.835938 2.25 -12.828125 L 2.8125 -12.765625 C 3.03125 -12.734375 3.179688 -12.71875 3.265625 -12.71875 L 3.46875 -12.71875 C 3.613281 -12.738281 3.703125 -12.707031 3.734375 -12.625 C 3.765625 -12.539062 3.789062 -12.382812 3.8125 -12.15625 C 3.8125 -12.039062 3.875 -11.582031 4 -10.78125 C 4.125 -9.976562 4.28125 -9.179688 4.46875 -8.390625 C 4.613281 -7.628906 4.757812 -6.988281 4.90625 -6.46875 L 5.109375 -5.625 L 5.21875 -5.84375 L 5.453125 -6.34375 C 5.566406 -6.550781 5.785156 -7.039062 6.109375 -7.8125 L 6.296875 -8.28125 C 6.378906 -8.457031 6.539062 -8.796875 6.78125 -9.296875 C 7.03125 -9.804688 7.226562 -10.191406 7.375 -10.453125 C 7.445312 -10.597656 7.546875 -10.796875 7.671875 -11.046875 C 8.085938 -11.835938 8.375 -12.222656 8.53125 -12.203125 C 8.613281 -12.191406 8.664062 -12.171875 8.6875 -12.140625 C 8.71875 -12.109375 8.734375 -12.0625 8.734375 -12 C 8.734375 -11.9375 8.742188 -11.878906 8.765625 -11.828125 C 8.765625 -11.734375 8.773438 -11.613281 8.796875 -11.46875 C 8.816406 -11.332031 8.832031 -11.1875 8.84375 -11.03125 C 9.175781 -9.664062 9.367188 -8.851562 9.421875 -8.59375 L 9.84375 -7.25 L 10.09375 -6.484375 C 10.113281 -6.546875 10.140625 -6.597656 10.171875 -6.640625 L 10.4375 -7.0625 C 10.46875 -7.132812 10.546875 -7.390625 10.671875 -7.828125 C 10.835938 -8.367188 10.96875 -8.75 11.0625 -8.96875 C 11.15625 -9.1875 11.304688 -9.515625 11.515625 -9.953125 C 11.773438 -10.472656 11.929688 -10.828125 11.984375 -11.015625 C 12.097656 -11.441406 12.28125 -11.640625 12.53125 -11.609375 C 12.726562 -11.628906 12.953125 -11.625 13.203125 -11.59375 C 13.328125 -11.582031 13.410156 -11.566406 13.453125 -11.546875 C 13.585938 -11.523438 13.648438 -11.457031 13.640625 -11.34375 L 13.578125 -11.125 L 13.359375 -10.625 C 13.222656 -10.300781 13.109375 -10.054688 13.015625 -9.890625 C 12.921875 -9.679688 12.8125 -9.421875 12.6875 -9.109375 C 12.5625 -8.804688 12.429688 -8.503906 12.296875 -8.203125 C 12.015625 -7.484375 11.773438 -6.90625 11.578125 -6.46875 C 11.460938 -6.175781 11.320312 -5.742188 11.15625 -5.171875 C 11 -4.609375 10.914062 -4.28125 10.90625 -4.1875 C 10.863281 -3.882812 10.726562 -3.539062 10.5 -3.15625 C 10.414062 -2.96875 10.269531 -2.5625 10.0625 -1.9375 C 9.851562 -1.320312 9.710938 -0.90625 9.640625 -0.6875 C 9.410156 0.101562 9.265625 0.546875 9.203125 0.640625 C 9.179688 0.710938 9.148438 0.800781 9.109375 0.90625 C 9.078125 1.007812 9.050781 1.082031 9.03125 1.125 C 9.007812 1.175781 8.976562 1.195312 8.9375 1.1875 C 8.84375 1.175781 8.773438 1.144531 8.734375 1.09375 C 8.691406 1.039062 8.644531 0.925781 8.59375 0.75 C 8.507812 0.613281 8.332031 -0.0234375 8.0625 -1.171875 C 8.007812 -1.410156 7.847656 -2.171875 7.578125 -3.453125 C 7.535156 -3.710938 7.457031 -4.082031 7.34375 -4.5625 L 7.171875 -5.28125 L 6.84375 -4.8125 C 6.6875 -4.539062 6.4375 -4.097656 6.09375 -3.484375 L 5.890625 -3.140625 C 5.691406 -2.710938 5.335938 -1.851562 4.828125 -0.5625 L 4.625 -0.046875 C 4.582031 0.0976562 4.507812 0.238281 4.40625 0.375 C 4.3125 0.507812 4.234375 0.570312 4.171875 0.5625 Z M 4.171875 0.5625"/></g><g id="i"><path d="M 5.078125 1.4375 C 3.328125 1.082031 2.3125 0.109375 2.03125 -1.484375 C 1.75 -3.085938 1.773438 -4.738281 2.109375 -6.4375 C 2.441406 -8.070312 2.925781 -9.335938 3.5625 -10.234375 C 4.207031 -11.128906 4.894531 -11.707031 5.625 -11.96875 C 6.351562 -12.226562 7.039062 -12.296875 7.6875 -12.171875 C 8.90625 -11.921875 9.753906 -11.378906 10.234375 -10.546875 C 10.710938 -9.722656 10.9375 -8.8125 10.90625 -7.8125 C 10.882812 -6.820312 10.753906 -5.710938 10.515625 -4.484375 C 10.316406 -3.503906 9.960938 -2.519531 9.453125 -1.53125 C 8.953125 -0.550781 8.320312 0.226562 7.5625 0.8125 C 6.8125 1.40625 5.984375 1.613281 5.078125 1.4375 Z M 5.890625 -3.296875 C 6.210938 -3.222656 6.488281 -3.351562 6.71875 -3.6875 C 6.957031 -4.019531 7.128906 -4.441406 7.234375 -4.953125 C 7.328125 -5.453125 7.335938 -5.898438 7.265625 -6.296875 C 7.191406 -6.703125 7.019531 -6.929688 6.75 -6.984375 C 6.445312 -7.046875 6.175781 -6.878906 5.9375 -6.484375 C 5.695312 -6.085938 5.53125 -5.644531 5.4375 -5.15625 C 5.332031 -4.644531 5.296875 -4.222656 5.328125 -3.890625 C 5.359375 -3.554688 5.546875 -3.359375 5.890625 -3.296875 Z M 5.890625 -3.296875"/></g><g id="j"><path d="M 1.546875 0.703125 C 1.398438 0.671875 1.304688 0.617188 1.265625 0.546875 C 1.222656 0.472656 1.222656 0.363281 1.265625 0.21875 L 1.390625 -0.203125 L 1.640625 -1.265625 C 1.898438 -2.535156 2.15625 -3.640625 2.40625 -4.578125 C 2.53125 -5.066406 2.628906 -5.394531 2.703125 -5.5625 C 2.835938 -5.851562 3.09375 -6.707031 3.46875 -8.125 C 3.851562 -9.59375 4.117188 -10.707031 4.265625 -11.46875 C 4.273438 -11.5625 4.304688 -11.695312 4.359375 -11.875 C 4.398438 -12.0625 4.453125 -12.191406 4.515625 -12.265625 C 4.578125 -12.347656 4.628906 -12.382812 4.671875 -12.375 C 4.722656 -12.375 4.804688 -12.363281 4.921875 -12.34375 L 5.328125 -12.265625 C 6.179688 -12.148438 6.859375 -12.023438 7.359375 -11.890625 C 8.722656 -11.535156 9.65625 -10.914062 10.15625 -10.03125 C 10.65625 -9.144531 10.757812 -8.144531 10.46875 -7.03125 C 10.238281 -6.144531 9.726562 -5.375 8.9375 -4.71875 C 8.601562 -4.425781 8.242188 -4.1875 7.859375 -4 L 8.515625 -1.359375 C 9.015625 0.578125 9.320312 1.671875 9.4375 1.921875 C 9.519531 2.234375 9.550781 2.429688 9.53125 2.515625 C 9.507812 2.566406 9.46875 2.585938 9.40625 2.578125 C 9.351562 2.578125 9.304688 2.570312 9.265625 2.5625 C 9.222656 2.550781 9.191406 2.546875 9.171875 2.546875 L 7.09375 2.0625 C 7 2.039062 6.929688 1.976562 6.890625 1.875 C 6.859375 1.769531 6.828125 1.59375 6.796875 1.34375 C 6.773438 1.144531 6.726562 0.875 6.65625 0.53125 C 6.519531 0.0390625 6.3125 -0.878906 6.03125 -2.234375 L 5.59375 -4.296875 L 5.390625 -3.3125 L 5.125 -1.890625 C 4.757812 -0.265625 4.582031 0.644531 4.59375 0.84375 C 4.59375 0.894531 4.582031 0.953125 4.5625 1.015625 C 4.5 1.242188 4.351562 1.328125 4.125 1.265625 C 4.050781 1.242188 3.988281 1.222656 3.9375 1.203125 C 3.757812 1.117188 3.28125 1.015625 2.5 0.890625 C 1.976562 0.796875 1.660156 0.734375 1.546875 0.703125 Z M 6.109375 -6.75 C 6.296875 -6.695312 6.46875 -6.691406 6.625 -6.734375 C 7.007812 -6.796875 7.265625 -7.070312 7.390625 -7.5625 C 7.484375 -7.914062 7.5 -8.191406 7.4375 -8.390625 C 7.375 -8.585938 7.253906 -8.707031 7.078125 -8.75 C 6.953125 -8.78125 6.828125 -8.757812 6.703125 -8.6875 C 6.679688 -8.6875 6.65625 -8.601562 6.625 -8.4375 C 6.601562 -8.28125 6.570312 -8.117188 6.53125 -7.953125 C 6.5 -7.828125 6.46875 -7.734375 6.4375 -7.671875 C 6.332031 -7.484375 6.25 -7.273438 6.1875 -7.046875 L 6.140625 -6.90625 Z M 6.109375 -6.75"/></g><g id="k"><path d="M 1.5625 0.671875 C 1.300781 0.585938 1.207031 0.425781 1.28125 0.1875 L 1.734375 -1.21875 L 3.78125 -7.1875 C 3.925781 -7.644531 4.160156 -8.476562 4.484375 -9.6875 L 5.125 -11.90625 C 5.1875 -12.101562 5.296875 -12.175781 5.453125 -12.125 C 5.515625 -12.113281 5.613281 -12.066406 5.75 -11.984375 C 5.882812 -11.910156 5.988281 -11.859375 6.0625 -11.828125 C 6.394531 -11.671875 6.789062 -11.515625 7.25 -11.359375 C 7.570312 -11.253906 7.878906 -11.175781 8.171875 -11.125 C 8.359375 -11.09375 8.484375 -11.035156 8.546875 -10.953125 C 8.609375 -10.878906 8.617188 -10.796875 8.578125 -10.703125 C 8.554688 -10.609375 8.519531 -10.519531 8.46875 -10.4375 C 8.414062 -10.351562 8.375 -10.253906 8.34375 -10.140625 L 8 -9.203125 C 7.625 -8.234375 7.359375 -7.503906 7.203125 -7.015625 L 6.34375 -4.3125 C 6.21875 -3.875 6.082031 -3.425781 5.9375 -2.96875 L 5.265625 -1.03125 L 5.125 -0.671875 L 4.984375 -0.1875 L 4.8125 0.46875 L 7.359375 1.390625 L 9.484375 2.109375 L 9.515625 2.109375 C 9.585938 2.140625 9.625 2.164062 9.625 2.1875 C 9.625 2.21875 9.613281 2.25 9.59375 2.28125 C 9.582031 2.320312 9.570312 2.351562 9.5625 2.375 C 9.53125 2.425781 9.5 2.519531 9.46875 2.65625 C 9.445312 2.800781 9.421875 2.925781 9.390625 3.03125 C 9.359375 3.113281 9.3125 3.15625 9.25 3.15625 C 9.1875 3.15625 9.109375 3.140625 9.015625 3.109375 C 8.921875 3.078125 8.851562 3.054688 8.8125 3.046875 L 7.890625 2.671875 C 7.066406 2.328125 6.484375 2.097656 6.140625 1.984375 C 5.765625 1.859375 4.785156 1.582031 3.203125 1.15625 Z M 1.5625 0.671875"/></g><g id="l"><path d="M 1.546875 0.609375 C 1.316406 0.515625 1.28125 0.269531 1.4375 -0.125 L 1.625 -0.5625 L 1.953125 -1.46875 L 2.25 -2.25 L 2.4375 -2.78125 C 2.632812 -3.40625 2.882812 -4.097656 3.1875 -4.859375 C 3.363281 -5.316406 3.625 -5.914062 3.96875 -6.65625 C 4.300781 -7.375 4.5625 -7.976562 4.75 -8.46875 L 5.65625 -10.828125 C 5.726562 -11.015625 5.8125 -11.226562 5.90625 -11.46875 C 5.945312 -11.59375 6.0625 -11.632812 6.25 -11.59375 C 6.4375 -11.550781 6.617188 -11.488281 6.796875 -11.40625 C 6.972656 -11.332031 7.101562 -11.28125 7.1875 -11.25 L 7.828125 -11.03125 C 8.328125 -10.875 8.726562 -10.734375 9.03125 -10.609375 C 9.75 -10.328125 10.429688 -9.835938 11.078125 -9.140625 C 11.734375 -8.441406 12.164062 -7.46875 12.375 -6.21875 C 12.582031 -4.976562 12.347656 -3.492188 11.671875 -1.765625 C 11.046875 -0.191406 10.195312 0.847656 9.125 1.359375 C 8.050781 1.878906 7.054688 2.085938 6.140625 1.984375 C 5.222656 1.890625 4.488281 1.734375 3.9375 1.515625 L 2.484375 0.96875 C 2.234375 0.875 1.921875 0.753906 1.546875 0.609375 Z M 5.703125 -2.078125 C 6.078125 -2.109375 6.453125 -2.203125 6.828125 -2.359375 C 7.628906 -2.691406 8.179688 -3.242188 8.484375 -4.015625 C 8.773438 -4.753906 8.726562 -5.453125 8.34375 -6.109375 C 8.175781 -6.398438 7.953125 -6.648438 7.671875 -6.859375 C 7.609375 -6.597656 7.546875 -6.394531 7.484375 -6.25 C 7.398438 -6.019531 7.257812 -5.703125 7.0625 -5.296875 C 6.882812 -4.910156 6.757812 -4.625 6.6875 -4.4375 C 6.5625 -4.132812 6.363281 -3.65625 6.09375 -3 C 5.988281 -2.789062 5.859375 -2.484375 5.703125 -2.078125 Z M 5.703125 -2.078125"/></g></defs><g fill="#A1C860"><use x="8.348" y="54.537" xmlns:xlink="http://www.w3.org/1999/xlink" xlink:href="#a" xlink:type="simple" xlink:actuate="onLoad" xlink:show="embed"/></g><g fill="#A1C860"><use x="20.307" y="49.956" xmlns:xlink="http://www.w3.org/1999/xlink" xlink:href="#b" xlink:type="simple" xlink:actuate="onLoad" xlink:show="embed"/></g><g fill="#A1C860"><use x="28.854" y="47.241" xmlns:xlink="http://www.w3.org/1999/xlink" xlink:href="#c" xlink:type="simple" xlink:actuate="onLoad" xlink:show="embed"/></g><g fill="#A1C860"><use x="38.221" y="44.809" xmlns:xlink="http://www.w3.org/1999/xlink" xlink:href="#d" xlink:type="simple" xlink:actuate="onLoad" xlink:show="embed"/></g><g fill="#A1C860"><use x="54.344" y="41.986" xmlns:xlink="http://www.w3.org/1999/xlink" xlink:href="#e" xlink:type="simple" xlink:actuate="onLoad" xlink:show="embed"/></g><g fill="#A1C860"><use x="64.203" y="40.976" xmlns:xlink="http://www.w3.org/1999/xlink" xlink:href="#f" xlink:type="simple" xlink:actuate="onLoad" xlink:show="embed"/></g><g fill="#A1C860"><use x="76.993" y="40.642" xmlns:xlink="http://www.w3.org/1999/xlink" xlink:href="#g" xlink:type="simple" xlink:actuate="onLoad" xlink:show="embed"/></g><g fill="#A1C860"><use x="91.695" y="41.347" xmlns:xlink="http://www.w3.org/1999/xlink" xlink:href="#h" xlink:type="simple" xlink:actuate="onLoad" xlink:show="embed"/></g><g fill="#A1C860"><use x="103.926" y="42.991" xmlns:xlink="http://www.w3.org/1999/xlink" xlink:href="#i" xlink:type="simple" xlink:actuate="onLoad" xlink:show="embed"/></g><g fill="#A1C860"><use x="113.965" y="45.002" xmlns:xlink="http://www.w3.org/1999/xlink" xlink:href="#j" xlink:type="simple" xlink:actuate="onLoad" xlink:show="embed"/></g><g fill="#A1C860"><use x="123.565" y="47.522" xmlns:xlink="http://www.w3.org/1999/xlink" xlink:href="#k" xlink:type="simple" xlink:actuate="onLoad" xlink:show="embed"/></g><g fill="#A1C860"><use x="132.937" y="50.562" xmlns:xlink="http://www.w3.org/1999/xlink" xlink:href="#l" xlink:type="simple" xlink:actuate="onLoad" xlink:show="embed"/></g><path transform="matrix(.52802 -.20511 .20511 .52802 1.157 37.336)" fill="none" d="M 20.481859 7.490322 C 20.701472 7.553437 20.813986 7.663724 20.810477 7.825114 L 20.751665 8.090785 C 20.726375 8.251112 20.694708 8.542123 20.645243 8.974178 C 20.595777 9.406233 20.533186 10.062523 20.448545 10.946979 C 20.38096 11.616125 20.326907 13.126486 20.274965 15.48842 C 20.231948 17.846424 20.211942 19.688119 20.212451 21.019932 C 20.212807 21.952201 20.168793 23.570031 20.086837 25.87592 L 20.016623 28.075402 L 19.982495 29.401158 C 19.985836 29.73536 20.007027 30.0617 20.051061 30.367321 L 20.08256 30.571901 C 20.085108 30.698655 20.035861 30.768299 19.928391 30.778338 C 19.833778 30.79337 19.772366 30.799107 19.750586 30.798044 C 19.525659 30.843833 19.13148 30.868263 18.555193 30.866341 C 18.375954 30.870694 18.293082 30.779319 18.288729 30.60008 L 18.318987 25.684857 C 18.303853 25.323881 18.291216 24.956476 18.30785 24.570851 C 18.318057 24.182729 18.322206 23.829244 18.317802 23.516823 L 18.320482 22.119668 L 18.322755 19.657062 L 15.625235 19.72629 C 14.676551 19.749861 13.389734 19.767848 11.769777 19.767395 L 8.647694 19.767873 C 7.798617 19.763556 7.144132 19.753451 6.682806 19.722206 C 6.681524 20.106398 6.667707 20.389547 6.64672 20.595932 C 6.601287 21.303275 6.583691 21.977043 6.585009 22.621169 L 6.551745 26.211007 C 6.551343 27.964144 6.606413 29.117409 6.710526 29.668304 C 6.763114 29.932861 6.785317 30.104239 6.788557 30.172078 C 6.786533 30.482002 6.7027 30.678771 6.533128 30.75346 C 6.369983 30.830646 6.187184 30.863208 5.997585 30.85614 C 5.816911 30.84514 5.686227 30.838763 5.620885 30.835574 C 4.839276 30.790884 3.962361 30.82014 2.963367 30.935136 C 2.583478 30.979913 2.352072 30.890024 2.275578 30.667965 C 2.199083 30.445906 2.163974 30.136353 2.176677 29.741803 C 2.185449 29.338329 2.191404 29.037329 2.194542 28.838806 L 2.126952 17.338465 L 2.18936 8.722004 C 2.191333 8.278899 2.239786 8.001806 2.339714 7.87787 C 2.439642 7.753934 2.604221 7.692101 2.824525 7.696301 L 3.552214 7.727444 C 3.670042 7.728827 3.924612 7.701951 4.317356 7.662168 C 4.42982 7.639274 4.617984 7.630989 4.884347 7.630888 L 5.754142 7.658049 C 5.929822 7.681904 6.16941 7.693596 6.488259 7.691689 C 6.730344 7.696952 6.87962 7.769734 6.933591 7.916463 C 6.983632 8.054267 7.006897 8.203864 6.99696 8.362757 C 6.983093 8.512725 6.977778 8.621629 6.981018 8.689468 C 6.98355 9.711356 6.939063 11.025691 6.848991 12.647823 L 6.71671 15.940273 L 6.614626 17.898041 L 8.615584 17.965118 L 9.838865 17.996428 C 10.908617 18.04208 11.645231 18.069292 12.072984 18.072699 C 13.797912 18.069541 15.112938 18.055114 16.021993 18.038342 C 17.11172 18.03257 17.944011 18.022969 18.517429 17.994186 L 18.517765 17.003002 L 18.482787 15.169541 C 18.482111 14.33332 18.531439 12.606586 18.617916 9.984345 L 18.685582 7.65811 C 18.710501 7.460649 18.831147 7.359556 19.051451 7.363757 L 19.416729 7.394681 C 19.505286 7.414285 19.670607 7.426719 19.915189 7.425555 C 20.181552 7.425453 20.372584 7.447874 20.481859 7.490322 Z M 18.291918 30.534737 L 18.288729 30.60008 Z M 18.291918 30.534737" stroke="#000" stroke-width="1.06"/><path transform="matrix(.54007 -.1709 .1709 .54007 14.177 32.381)" fill="none" d="M 0.364264 31.002277 C 0.163533 30.99662 0.113433 30.857807 0.204974 30.568527 C 0.203975 30.503115 0.216125 30.441863 0.237263 30.397922 C 0.236596 30.354314 0.246666 30.299637 0.267471 30.233892 C 0.288275 30.168146 0.319483 30.069528 0.367667 29.940118 L 0.665007 28.703356 C 0.706617 28.571865 0.786008 28.343837 0.890032 28.01511 C 1.004792 27.675315 1.087345 27.368725 1.128704 27.078031 C 1.240466 26.541998 1.452757 25.733996 1.759004 24.651944 L 2.032628 23.718693 C 2.45222 22.347027 2.714443 21.381236 2.823791 20.829974 L 3.294145 19.06933 C 3.51401 18.328821 3.646495 17.864442 3.69368 17.66962 C 3.844971 17.008671 4.065584 16.174371 4.362094 15.168799 L 4.59003 14.242788 L 4.788758 13.54622 C 5.012784 12.792562 5.200694 12.244462 5.348326 11.915069 C 5.398591 11.779084 5.559454 11.316452 5.835411 10.53583 C 6.113447 9.748632 6.295864 9.126465 6.380246 8.654097 C 6.533536 8.123973 6.697479 7.72018 6.867915 7.455866 C 7.038351 7.191552 7.260968 7.059477 7.548915 7.063802 C 7.657936 7.062136 7.764128 7.160836 7.874065 7.361982 C 7.984003 7.563128 8.096688 7.801308 8.207958 8.089671 C 8.319228 8.378033 8.396626 8.590581 8.440152 8.727314 C 8.618833 9.145501 8.929343 10.198504 9.373763 11.879746 L 9.64316 12.811245 C 9.667629 12.985345 10.031068 14.076795 10.737639 16.072446 L 11.374053 17.901239 L 11.971516 19.464555 C 12.589287 21.215119 12.991508 22.275444 13.167442 22.656598 C 13.942674 25.006691 14.391752 26.42179 14.534399 26.908136 C 14.691527 27.485861 14.940283 28.208307 15.280668 29.075474 C 15.623133 29.936068 15.815963 30.423829 15.859156 30.538757 C 15.9269 30.690387 15.956944 30.801155 15.957943 30.866567 C 15.959275 30.953784 15.835691 31.001471 15.597927 30.99856 L 13.737671 31.002988 C 13.64388 31.00224 13.569479 30.985929 13.514469 30.954055 C 13.46154 30.915607 13.414519 30.835632 13.370993 30.698899 C 13.273538 30.458306 13.154028 30.058842 13.003807 29.505003 C 12.803404 28.949749 12.664919 28.450253 12.597006 28.002021 C 12.535252 27.671465 12.428891 27.276162 12.280003 26.809539 C 12.144264 26.347077 12.010191 25.993635 11.899587 25.748881 C 11.707757 25.326532 11.53257 24.851587 11.376109 24.317471 L 11.073506 23.353766 C 10.956327 23.106931 10.873354 22.957715 10.824585 22.906118 C 10.764748 22.843786 10.672705 22.814659 10.535305 22.814577 C 10.070845 22.819491 9.728554 22.826901 9.504271 22.849956 L 8.076935 22.926283 C 7.904916 22.944177 7.085015 22.95234 5.615152 22.957347 L 3.591199 22.953371 L 3.525786 22.95437 C 3.394962 22.956369 3.292101 23.07571 3.221697 23.321048 L 3.159201 23.655683 L 3.024887 24.28584 C 2.983277 24.417331 2.838227 25.058556 2.589738 26.209515 C 2.527907 26.587759 2.41756 27.073608 2.265269 27.669145 C 2.217587 28.116962 2.11631 28.482722 1.96593 28.775082 C 1.916747 28.83908 1.860241 28.994788 1.796412 29.242207 C 1.728089 29.480971 1.672249 29.680288 1.628892 29.840157 C 1.55957 30.013509 1.483258 30.300375 1.393382 30.698675 C 1.371911 30.720812 1.355267 30.773408 1.330301 30.852303 C 1.31191 30.933278 1.277623 30.973058 1.223279 30.984793 C 1.184165 30.994114 1.116673 31.001688 1.029456 31.00302 Z M 6.714658 20.694204 C 6.982215 20.648679 7.365701 20.625374 7.849885 20.626701 L 9.640901 20.658226 C 9.930929 20.655976 10.07149 20.577497 10.077814 20.420374 C 10.074068 20.317928 9.993923 20.068347 9.837712 19.693434 C 9.710546 19.363877 9.509144 18.743211 9.246654 17.835597 C 9.045667 17.099335 8.846345 16.472095 8.646275 15.938645 C 8.422402 15.274704 8.185796 14.491006 7.931961 13.578898 C 7.676046 12.673364 7.529653 12.084571 7.484129 11.817014 C 7.147736 10.640095 6.927276 10.056795 6.818255 10.058461 C 6.746268 10.057379 6.637417 10.355647 6.485127 10.951184 L 6.282572 11.682705 C 6.128201 12.284816 5.928059 13.031567 5.680066 13.929532 C 5.438648 14.829577 5.214622 15.583236 5.019056 16.201243 C 4.886157 16.781216 4.707486 17.50583 4.472309 18.386152 C 4.241294 19.253325 4.056464 19.860263 3.92198 20.193817 C 3.88037 20.325308 3.855405 20.404202 3.855738 20.426006 C 3.858069 20.578635 3.927228 20.680082 4.069787 20.732427 C 4.214427 20.778198 4.362895 20.789015 4.502374 20.782523 C 4.652589 20.764961 4.748461 20.759135 4.792069 20.758469 Z M 6.714658 20.694204" stroke="#000" stroke-width="1.06"/><path transform="rotate(-14.402 128.166 -78.9) scale(.56646)" fill="none" d="M 9.741778 31.397144 C 8.303399 31.397978 6.923624 30.865651 5.597489 29.791769 C 4.279748 28.712922 3.225403 27.246061 2.429491 25.382792 C 1.633579 23.519523 1.233554 21.473136 1.232848 19.230272 C 1.233675 17.00916 1.617735 15.014619 2.378347 13.244933 C 3.140674 11.468567 4.122946 10.083308 5.318483 9.087439 C 6.5207 8.093285 7.746541 7.589332 9.014329 7.587407 C 10.586473 7.592445 11.855509 7.918343 12.819723 8.571779 C 13.783936 9.225215 14.477372 9.851831 14.898315 10.458306 C 14.979452 10.585937 15.062305 10.706889 15.140194 10.819446 C 15.219798 10.925325 15.262576 11.035985 15.261848 11.149712 C 15.262654 11.285192 15.139441 11.460019 14.897174 11.682588 C 13.880179 12.482241 13.146516 13.176665 12.701146 13.774253 C 12.483516 14.067226 12.291432 14.288444 12.133291 14.432942 C 11.976864 14.570761 11.822516 14.645038 11.673678 14.642413 C 11.516446 14.644752 11.338188 14.534898 11.138905 14.31285 C 10.672196 13.801416 10.309911 13.437833 10.057013 13.230494 C 9.80583 13.016476 9.497056 12.915822 9.140801 12.916888 C 8.587239 12.910002 8.042149 13.14736 7.495604 13.612171 C 6.94906 14.076983 6.494204 14.850126 6.111001 15.926455 C 5.736192 16.99782 5.553441 18.374814 5.556069 20.055721 C 5.553915 21.699802 5.788077 23.005871 6.26695 23.968965 C 6.745822 24.932059 7.285092 25.604519 7.893154 25.981383 C 8.501216 26.358246 9.03022 26.543935 9.47177 26.543414 C 9.871531 26.539281 10.283844 26.403099 10.710424 26.128188 C 11.130325 25.851562 11.496794 25.561214 11.80658 25.24207 C 11.845303 25.202177 11.914356 25.127355 12.013737 25.017604 C 12.114833 24.901174 12.213851 24.848286 12.30754 24.843868 C 12.412873 24.849559 12.544741 24.890543 12.706392 24.981894 L 15.529642 26.547041 C 15.619719 26.584413 15.75312 26.64715 15.944918 26.732003 C 16.131752 26.808462 16.263438 26.877878 16.33826 26.94693 C 16.421476 27.011018 16.46272 27.099926 16.463708 27.206974 C 16.462981 27.320701 16.423712 27.44589 16.356011 27.570896 C 15.87236 28.400721 15.100961 29.242086 14.060135 30.106815 C 13.021024 30.964865 11.578202 31.398855 9.741778 31.397144 Z M 9.741778 31.397144" stroke="#000" stroke-width="1.06"/><path transform="rotate(-10.858 157.646 -165.908) scale(.56646)" fill="none" d="M 14.232276 31.13259 C 13.965831 31.130627 13.73557 31.086455 13.548266 31.001371 C 13.360961 30.916288 13.152787 30.756985 12.927916 30.538307 C 12.778095 30.404241 12.196168 29.667683 11.165994 28.339578 C 10.377109 27.254367 9.818374 26.543322 9.503335 26.209043 C 9.113799 25.860473 8.523054 25.206483 7.743347 24.256442 L 6.551934 22.890385 C 6.551713 23.550373 6.537864 24.025186 6.51716 24.316122 L 6.452752 26.445357 L 6.420714 28.735277 C 6.424473 29.557526 6.455709 30.090139 6.521194 30.334414 C 6.53659 30.400562 6.549389 30.480255 6.552816 30.572194 C 6.552623 30.71961 6.512818 30.817299 6.429227 30.850414 C 6.352409 30.884829 6.236256 30.904676 6.088839 30.904482 L 4.755317 30.901441 L 3.95496 30.937487 C 3.377816 30.981244 2.960057 30.999405 2.693612 30.997442 C 2.475873 30.997802 2.337828 30.985363 2.298493 30.970795 C 2.137531 30.968003 2.059884 30.896935 2.064251 30.764362 C 2.062399 30.700812 2.108424 30.534101 2.194253 30.269702 C 2.238979 30.109763 2.22267 29.755554 2.12501 29.203177 C 2.107761 29.073479 2.083463 28.907321 2.064363 28.714073 C 2.039789 28.512754 2.031358 28.300489 2.032298 28.075977 C 2.048414 26.857309 2.092587 24.906754 2.140603 22.240732 C 2.19669 19.569238 2.257725 18.043214 2.32918 17.670733 C 2.394803 17.072442 2.425293 15.961856 2.427422 14.340272 C 2.427561 13.497706 2.415343 12.975763 2.397542 12.775743 C 2.374543 12.602812 2.365477 12.137647 2.36357 11.378947 C 2.36509 10.712186 2.378856 10.054796 2.41164 9.408075 C 2.445724 8.754583 2.478867 8.325601 2.524615 8.123729 C 2.545872 7.903115 2.66537 7.792629 2.889881 7.793569 C 3.002137 7.794039 3.111794 7.808053 3.224326 7.843684 C 3.338157 7.872543 3.447814 7.886558 3.553298 7.885729 C 3.980704 7.890483 4.301327 7.902839 4.521941 7.924096 C 4.697746 7.922714 4.914186 7.929128 5.150943 7.939438 C 5.394472 7.951048 5.683832 7.943364 6.017724 7.923157 L 6.215145 7.9189 C 6.397723 7.918817 6.510255 7.954448 6.566286 8.028392 C 6.623616 8.095563 6.647361 8.191399 6.649766 8.325271 L 6.645896 9.55331 L 6.651037 10.551364 L 6.649571 11.913275 C 6.649708 14.511297 6.607222 16.160246 6.520811 16.866895 C 6.475975 17.356828 6.450627 17.745176 6.451539 18.033237 L 6.485898 19.135199 L 6.551521 20.257202 L 7.081287 19.691778 C 7.189838 19.565148 7.51447 19.227193 8.044512 18.69693 C 8.309022 18.452765 8.798707 17.949868 9.506793 17.186939 C 10.222952 16.418538 10.774057 15.815078 11.168182 15.371086 C 11.347526 15.131648 11.771062 14.644148 12.437492 13.915358 C 13.098448 13.178496 13.714127 12.53125 14.261611 11.983269 C 14.619552 11.581487 14.964225 11.212268 15.29433 10.882385 C 16.601675 9.447996 17.302713 8.648607 17.389372 8.489691 C 17.607221 8.159338 17.839721 7.972227 18.088171 7.921586 C 18.158493 7.921033 18.292365 7.918628 18.499157 7.902126 C 18.711423 7.893695 18.885929 7.899085 19.021377 7.925069 C 19.17974 7.941406 19.256088 8.019247 19.257193 8.159891 C 19.255148 8.243758 19.200499 8.34562 19.087773 8.457406 C 19.044817 8.498316 18.749597 8.792762 18.215657 9.343343 C 17.684315 9.880378 17.278968 10.273065 16.992842 10.520105 C 16.764516 10.72206 16.121278 11.476364 15.041512 12.785892 C 13.969818 14.089947 13.333629 14.880712 13.137119 15.17303 C 12.557901 15.813226 11.857886 16.570682 11.039672 17.431851 L 9.243389 19.292043 C 9.131326 19.144156 9.521692 19.598209 10.406412 20.659676 C 11.027674 21.410802 11.618418 22.064792 12.171873 22.620348 C 12.388672 22.8445 13.054742 23.618265 14.167484 24.955188 C 15.583021 26.617019 16.373122 27.51288 16.524243 27.640173 C 16.753011 27.838535 17.344031 28.527686 18.320221 29.697981 L 18.986567 30.506907 C 19.054843 30.590221 19.08666 30.680584 19.084614 30.764451 C 19.085996 30.940256 18.893301 31.029679 18.513302 31.034019 Z M 14.232276 31.13259" stroke="#000" stroke-width="1.06"/><path transform="rotate(-5.555 269.803 -521.961) scale(.56646)" fill="none" d="M 7.413321 30.998958 C 7.142975 31.000369 6.99465 30.958224 6.947755 30.87052 C 6.908392 30.776621 6.88257 30.614755 6.884016 30.386258 C 6.886129 30.150897 6.882233 29.977307 6.885386 29.873687 L 7.016365 25.75016 C 7.151502 22.153597 7.216675 19.845843 7.21808 18.834429 C 7.219265 18.252557 7.19292 17.38394 7.152104 16.236778 L 7.115812 14.473427 C 5.522526 14.470838 3.905978 14.493699 2.266837 14.535147 L 1.237022 14.580451 C 0.939222 14.579191 0.739328 14.497387 0.622945 14.340567 C 0.52029 14.185082 0.495803 14.009489 0.570743 13.808928 L 0.602831 12.980638 C 0.645341 11.689158 0.66344 10.506158 0.664659 9.425442 C 0.6687 8.885418 0.658236 8.565692 0.633936 8.459402 L 0.636049 8.224041 C 0.631967 7.981149 0.680975 7.833491 0.781738 7.794796 C 0.883168 7.749237 1.03064 7.728943 1.231683 7.727717 L 4.522543 7.729185 L 6.382651 7.695378 C 7.53048 7.6477 8.342854 7.629739 8.80738 7.626435 L 10.806278 7.661559 C 12.402421 7.705997 13.654724 7.72391 14.56185 7.729025 C 15.22742 7.724496 15.664492 7.718521 15.860675 7.696038 C 16.347795 7.674146 16.694493 7.742519 16.892569 7.914216 C 17.091981 8.072186 17.191966 8.255124 17.193191 8.456168 C 17.196234 8.567319 17.175719 8.849389 17.137175 9.316772 C 17.105494 9.784822 17.09125 10.358496 17.086913 11.043988 C 17.088585 11.667709 17.123797 12.516403 17.193884 13.576343 C 17.191364 14.171943 16.801744 14.473529 16.025691 14.474237 L 10.171311 14.472782 L 10.108444 17.896237 C 10.085444 18.275062 10.07699 19.216506 10.076218 20.719899 C 10.076967 22.278869 10.083059 23.78293 10.106216 25.254009 C 10.130709 26.711362 10.139582 27.973199 10.140366 29.033325 L 10.17354 30.401453 L 10.171241 30.567511 C 10.172466 30.768555 10.14672 30.890761 10.087138 30.933464 C 10.034419 30.976833 9.963113 30.99761 9.872553 31.002656 C 9.78266 31.000838 9.720221 31.001692 9.67904 30.997685 Z M 7.413321 30.998958" stroke="#000" stroke-width="1.06"/><path transform="matrix(.5662 -.01703 .01703 .5662 62.843 22.591)" fill="none" d="M 20.479946 7.491372 C 20.705748 7.553355 20.812716 7.666955 20.814841 7.825696 L 20.751614 8.092855 C 20.726168 8.250766 20.689684 8.546325 20.642161 8.979532 C 20.601738 9.406054 20.533796 10.059414 20.451914 10.94692 C 20.383558 11.614066 20.324169 13.130057 20.280847 15.488207 C 20.237525 17.846357 20.209542 19.694443 20.210892 21.025987 C 20.210479 21.957338 20.168866 23.570449 20.085639 25.879106 L 20.019513 28.077893 L 19.986607 29.401509 C 19.983342 29.739461 20.008271 30.057564 20.047192 30.369189 L 20.082537 30.570322 C 20.085491 30.701492 20.035169 30.768968 19.931363 30.779644 C 19.83445 30.790528 19.772208 30.795555 19.75153 30.794933 C 19.529304 30.843442 19.12828 30.872775 18.555767 30.869356 C 18.376349 30.870859 18.289438 30.778559 18.287934 30.59914 L 18.318555 25.681085 C 18.301556 25.328725 18.292071 24.955895 18.303679 24.569901 C 18.315287 24.183907 18.318966 23.832169 18.321609 23.514895 L 18.322125 22.121316 L 18.320307 19.658324 L 15.627781 19.722229 C 14.674923 19.748765 13.391213 19.765351 11.769966 19.764887 L 8.644648 19.767484 C 7.80311 19.762873 7.148092 19.750073 6.679799 19.722192 C 6.682184 20.101708 6.673478 20.391203 6.646788 20.590471 C 6.604759 21.299803 6.584445 21.975292 6.585638 22.623833 L 6.553667 26.210343 C 6.549265 27.962553 6.604254 29.116337 6.71174 29.671488 C 6.759005 29.935071 6.788494 30.101534 6.786421 30.170461 C 6.783986 30.480842 6.702154 30.678452 6.534241 30.75619 C 6.366327 30.833928 6.186079 30.863002 6.000182 30.850513 C 5.814078 30.844916 5.690216 30.834292 5.614188 30.838904 C 4.843029 30.788117 3.958892 30.823619 2.96219 30.931624 C 2.58143 30.975365 2.356457 30.885812 2.273277 30.669442 C 2.197197 30.446386 2.165169 30.134969 2.176984 29.742082 C 2.189007 29.342302 2.191235 29.038814 2.190354 28.838717 L 2.129232 17.336272 L 2.194932 8.728315 C 2.194621 8.279871 2.237583 7.998305 2.337606 7.88403 C 2.438043 7.75597 2.605542 7.692017 2.826317 7.691758 L 3.556534 7.727516 C 3.667025 7.72394 3.922886 7.704039 4.317431 7.660712 C 4.43523 7.643558 4.621956 7.628476 4.884088 7.629461 L 5.752367 7.662472 C 5.931164 7.681647 6.172203 7.695795 6.482791 7.691337 C 6.731138 7.691907 6.880705 7.765395 6.931494 7.911801 C 6.989383 8.051521 7.005501 8.203784 7.000733 8.362317 C 6.98928 8.51375 6.979071 8.623827 6.983891 8.692962 C 6.98099 9.707025 6.941191 11.030433 6.851121 12.648986 L 6.710681 15.942477 L 6.617347 17.898982 L 8.616037 17.965989 L 9.836261 17.995786 C 10.904223 18.041701 11.648433 18.070981 12.069305 18.06984 C 13.794151 18.066521 15.112118 18.057864 16.023412 18.036977 C 17.113503 18.035265 17.941669 18.025676 18.515219 17.994631 L 18.51729 17.008139 L 18.482823 15.171972 C 18.487434 14.330435 18.532571 12.600147 18.625126 9.981317 L 18.687883 7.665145 C 18.707887 7.458777 18.828173 7.35891 19.048948 7.35865 L 19.420535 7.390522 C 19.502626 7.413688 19.667845 7.425556 19.909298 7.425918 C 20.185216 7.427317 20.370905 7.446699 20.479946 7.491372 Z M 18.2898 30.537105 L 18.287934 30.59914 Z M 18.2898 30.537105" stroke="#000" stroke-width="1.06"/><path transform="rotate(2.06 -579.159 2140.677) scale(.56646)" fill="none" d="M 2.45845 31.068018 C 2.327265 31.06585 2.249968 31.027236 2.22656 30.952176 C 2.203151 30.877117 2.190791 30.725755 2.189728 30.504982 C 2.167245 30.264281 2.159221 29.850549 2.159014 29.270927 C 2.159442 29.091502 2.145591 28.898792 2.124102 28.685657 C 2.102613 28.472521 2.09267 28.196865 2.093775 27.844908 L 2.095104 23.290628 C 2.092729 22.842191 2.111773 22.413682 2.14485 21.991567 C 2.177926 21.569453 2.194305 21.258346 2.193988 21.058247 C 2.281491 20.040739 2.329137 19.066071 2.330036 18.134491 C 2.329871 16.982139 2.297058 16.072476 2.224706 15.405752 C 2.183827 14.655088 2.158969 13.965949 2.157271 13.344979 C 2.162188 11.950931 2.193111 10.321332 2.263821 8.455687 C 2.267412 8.172643 2.315583 7.977695 2.429505 7.883882 C 2.536038 7.776533 2.693049 7.729468 2.893148 7.72915 L 3.391067 7.759492 C 3.591166 7.759175 3.916055 7.775057 4.351953 7.807636 C 4.794741 7.839966 5.340404 7.854785 5.982297 7.859232 C 6.713529 7.853557 7.581098 7.801561 8.577863 7.696603 C 9.775224 7.60511 10.573879 7.5556 10.974076 7.554965 C 11.884982 7.556609 12.714185 7.588802 13.468826 7.658186 L 14.66377 7.690986 C 14.953706 7.694329 15.142507 7.763422 15.230176 7.898267 C 15.317595 8.02622 15.360753 8.266176 15.359648 8.618133 C 15.359965 8.818232 15.386177 9.162304 15.431392 9.650598 C 15.472947 10.228729 15.497985 10.731551 15.499366 11.152423 C 15.494601 11.594217 15.461027 12.002549 15.391754 12.377667 C 15.369478 12.716588 15.216693 12.880807 14.927007 12.884356 C 14.844062 12.880447 14.719022 12.857356 14.565672 12.814585 C 14.405181 12.765172 14.286785 12.734941 14.196202 12.710607 C 13.869573 12.646485 12.902293 12.612373 11.308395 12.614664 L 10.044288 12.577458 C 9.753856 12.560333 9.332487 12.547931 8.773539 12.547392 C 8.380233 12.547778 8.083904 12.558467 7.884551 12.579459 C 7.216832 12.624246 6.631064 12.645375 6.120356 12.643096 L 4.359573 12.610005 C 4.180397 12.616468 4.078269 12.654654 4.060578 12.738097 C 4.035498 12.808005 4.028427 12.994569 4.024836 13.277613 C 4.025471 13.677811 4.017226 14.023126 3.992961 14.306915 C 3.942332 15.198887 3.919945 15.917331 3.919157 16.469388 L 3.921089 18.435918 C 3.923961 18.898138 3.929996 19.256738 3.952479 19.49744 C 4.13265 19.518542 4.429725 19.528527 4.857488 19.526898 C 5.231114 19.554823 6.011084 19.56119 7.184111 19.560279 C 7.674145 19.563304 8.377066 19.537949 9.314046 19.49725 C 10.023112 19.450972 10.484835 19.434317 10.705608 19.433254 C 11.015969 19.428959 11.327076 19.445338 11.632037 19.48264 C 11.94364 19.512802 12.178942 19.531916 12.337692 19.53309 C 12.627379 19.529541 12.770178 19.662397 12.765842 19.924767 C 12.769073 20.014355 12.759765 20.138897 12.738414 20.312176 C 12.716814 20.478563 12.703846 20.692942 12.706401 20.955063 L 12.735581 22.720501 C 12.735899 22.920599 12.713305 23.059421 12.661157 23.144107 C 12.622294 23.214512 12.547981 23.258595 12.43747 23.255681 C 12.368556 23.258166 12.278222 23.240724 12.152686 23.20385 C 12.034041 23.166728 11.929924 23.149782 11.833445 23.153262 C 11.633346 23.15358 11.267108 23.139189 10.721198 23.117479 C 10.182178 23.09552 9.443557 23.087661 8.518869 23.086515 C 7.511483 23.088351 6.650558 23.133206 5.915417 23.221827 C 5.187167 23.310199 4.740221 23.353923 4.588362 23.3525 C 4.340024 23.354558 4.201451 23.338855 4.159356 23.319672 C 4.049094 23.32365 3.979683 23.312353 3.951123 23.285782 L 3.953787 26.611655 C 4.112288 26.605937 4.229193 26.59482 4.318284 26.577806 L 5.255513 26.543999 L 9.173796 26.513066 C 9.974191 26.511796 10.609442 26.523383 11.072407 26.541185 L 13.371464 26.575561 L 14.76427 26.546021 C 15.033282 26.543218 15.208053 26.605917 15.295224 26.726979 C 15.382395 26.848041 15.429958 27.018834 15.431021 27.239607 L 15.393111 27.910309 L 15.35973 30.236931 C 15.358625 30.588889 15.276743 30.805754 15.120975 30.887276 C 14.971851 30.961659 14.752321 30.997179 14.469028 30.986697 C 14.178596 30.969572 13.943792 30.964241 13.764616 30.970704 C 12.812362 30.970551 11.997687 30.958536 11.306808 30.935154 L 7.917669 30.905598 C 7.648408 30.90151 6.317874 30.935703 3.918926 31.001536 L 2.664197 31.032995 Z M 2.45845 31.068018" stroke="#000" stroke-width="1.06"/><path transform="rotate(7.495 -129.765 722.444) scale(.56646)" fill="none" d="M 7.413133 31.035207 C 7.260022 31.034491 7.141633 30.980517 7.064805 30.872388 C 6.987078 30.757421 6.914926 30.579122 6.84835 30.337492 C 6.761625 30.154156 6.602742 29.52822 6.383576 28.444211 C 6.294868 28.087253 6.161355 27.548397 5.983039 26.827644 C 5.81156 26.105992 5.680208 25.636405 5.581247 25.412947 C 5.385664 24.930948 5.151753 24.210556 4.889049 23.271383 C 4.619509 22.333109 4.468724 21.768706 4.424819 21.593645 C 4.244171 21.172278 3.737298 19.381912 2.891426 16.231183 C 2.760435 15.817191 2.636281 15.4023 2.526701 14.992446 C 2.417121 14.582592 2.313839 14.220597 2.224592 13.912397 L 1.601119 11.553128 L 0.863388 8.854174 C 0.776841 8.566485 0.733475 8.342666 0.727354 8.190455 C 0.73293 8.127123 0.75488 8.082502 0.793202 8.056593 C 0.839261 8.036621 0.893956 8.029423 0.963225 8.027262 L 1.99992 8.029938 C 2.368575 8.030109 2.637914 8.01553 2.795163 7.994836 L 3.160758 7.918901 C 3.381877 7.855025 3.525814 7.891725 3.606241 8.027203 C 3.685768 8.155843 3.770516 8.429859 3.854548 8.856985 C 3.898452 9.032046 4.119951 9.816669 4.52498 11.203119 C 4.922273 12.583631 5.386136 13.941472 5.916569 15.276642 C 6.338149 16.57745 6.725 17.667213 7.075323 18.532257 L 7.650198 19.993729 L 7.773973 19.560121 L 8.110041 18.625612 C 8.270161 18.256774 8.532823 17.345836 8.9126 15.897836 L 9.140539 15.040156 C 9.235888 14.707662 9.430187 14.070024 9.738908 13.139114 C 10.047628 12.208204 10.293562 11.487262 10.470771 10.984023 C 10.584654 10.73951 10.717427 10.374271 10.869088 9.888305 C 11.448935 8.427887 11.873528 7.690388 12.138729 7.697219 C 12.290941 7.691098 12.391157 7.712686 12.439376 7.761983 C 12.479859 7.805342 12.510267 7.877849 12.5324 7.993177 C 12.553633 8.101668 12.579003 8.188748 12.601675 8.255318 C 12.645579 8.430379 12.700819 8.638724 12.766495 8.873517 C 12.831271 9.101474 12.886872 9.365414 12.931498 9.651665 C 13.818913 11.955332 14.354743 13.331524 14.531254 13.774301 L 15.561883 16.003479 L 16.161584 17.336488 C 16.206921 17.205326 16.24902 17.102411 16.28878 17.034581 L 16.624671 16.204425 C 16.670008 16.073263 16.755999 15.616806 16.890381 14.84099 C 17.046529 13.860606 17.178035 13.168633 17.289035 12.743661 C 17.400036 12.318689 17.598833 11.715235 17.890465 10.918725 C 18.221134 9.943195 18.405897 9.285945 18.452488 8.952914 C 18.54495 8.17566 18.81446 7.792425 19.252384 7.790436 C 19.609342 7.701728 20.007682 7.663216 20.445606 7.661227 C 20.667987 7.659783 20.816061 7.675073 20.881192 7.694323 C 21.145493 7.694317 21.277017 7.795249 21.275762 7.997118 L 21.20992 8.395281 L 20.913974 9.317555 C 20.756198 9.91561 20.628285 10.370629 20.516563 10.684411 C 20.401963 11.082036 20.269913 11.558465 20.114475 12.121436 C 19.957238 12.670734 19.8018 13.233705 19.654999 13.80945 C 19.319659 15.119451 19.028033 16.180262 18.781922 17.005558 C 18.65707 17.536682 18.509014 18.314297 18.353227 19.350276 C 18.196541 20.379419 18.11577 20.981251 18.118653 21.16171 C 18.118665 21.690313 17.966288 22.32939 17.655584 23.086678 C 17.539724 23.42187 17.371695 24.153426 17.152399 25.288183 C 16.93814 26.408365 16.795122 27.171407 16.723343 27.577307 C 16.497577 29.032859 16.347183 29.845559 16.256687 30.00353 C 16.239597 30.13793 16.212433 30.301477 16.181132 30.486435 C 16.142993 30.672293 16.11223 30.808492 16.076068 30.90367 C 16.039007 30.992012 15.98881 31.033394 15.926378 31.034655 C 15.745019 31.030701 15.621594 30.991301 15.547465 30.903682 C 15.472436 30.809226 15.364301 30.621753 15.228995 30.333525 C 15.047091 30.114028 14.592771 29.040099 13.866033 27.11174 C 13.708594 26.708184 13.239156 25.413675 12.470491 23.219575 C 12.333202 22.757725 12.110987 22.126213 11.803847 21.325039 L 11.343405 20.098899 L 10.867 21.024055 C 10.64607 21.512181 10.315216 22.327763 9.876239 23.484475 L 9.608534 24.145685 C 9.343351 24.931758 8.925074 26.51002 8.342728 28.902781 L 8.108675 29.872552 C 8.046249 30.138114 7.941002 30.395402 7.793834 30.65125 C 7.653502 30.906199 7.524323 31.034485 7.413133 31.035207 Z M 7.413133 31.035207" stroke="#000" stroke-width="1.06"/><path transform="matrix(.55547 .11103 -.11103 .55547 106.535 24.939)" fill="none" d="M 9.310173 31.730312 C 6.138816 31.731333 4.029226 30.394951 2.989516 27.726575 C 1.949806 25.0582 1.425378 22.188372 1.425697 19.129264 C 1.427357 16.182405 1.834673 13.822526 2.640883 12.050978 C 3.447093 10.27943 4.43582 9.033982 5.603007 8.329508 C 6.767491 7.61151 7.919765 7.254599 9.073354 7.256072 C 11.295332 7.254951 12.956001 7.893453 14.062123 9.170225 C 15.168246 10.446998 15.878093 11.957692 16.184904 13.703661 C 16.503887 15.440164 16.656502 17.399794 16.658978 19.593372 C 16.656088 21.373118 16.386772 23.192055 15.853735 25.063708 C 15.322049 26.942123 14.505041 28.518926 13.391888 29.810343 C 12.290908 31.092294 10.927632 31.73048 9.310173 31.730312 Z M 9.04328 23.288661 C 9.641037 23.288723 10.087361 22.953377 10.376842 22.290736 C 10.658209 21.622684 10.801645 20.827493 10.804448 19.891639 C 10.803188 19.005823 10.669382 18.230889 10.388154 17.562779 C 10.115041 16.900079 9.745873 16.566 9.282003 16.567304 C 8.719408 16.567245 8.304184 16.952633 8.028216 17.718057 C 7.752249 18.483482 7.614219 19.305721 7.616831 20.198299 C 7.615384 21.105753 7.700507 21.848225 7.880314 22.431124 C 8.057418 23.000499 8.445524 23.288598 9.04328 23.288661 Z M 9.04328 23.288661" stroke="#000" stroke-width="1.06"/><path transform="matrix(.5479 .14383 -.14383 .5479 117.591 27.184)" fill="none" d="M 2.993856 31.537699 C 2.701131 31.536119 2.50812 31.479845 2.413072 31.362207 C 2.314857 31.259659 2.264079 31.066232 2.264241 30.795268 L 2.298745 30.030481 L 2.222677 28.111219 C 2.095245 25.806189 2.031515 23.798135 2.031487 22.087057 C 2.026053 21.197293 2.059059 20.589748 2.128754 20.257753 C 2.24105 19.707818 2.294634 18.146645 2.294425 15.565813 C 2.298133 12.891268 2.250911 10.864621 2.161178 9.490791 C 2.135663 9.312121 2.127739 9.064668 2.125816 8.758604 C 2.124977 8.402348 2.157071 8.144389 2.223851 7.991397 C 2.297301 7.836655 2.36825 7.753863 2.44337 7.741273 C 2.518489 7.728682 2.660641 7.727012 2.859654 7.724675 L 3.584838 7.662633 C 5.119828 7.480686 6.338166 7.396126 7.249691 7.392109 C 9.731892 7.396404 11.602641 8.031764 12.850349 9.308362 C 14.104727 10.583209 14.731307 12.236749 14.731841 14.275653 C 14.735786 15.893019 14.210473 17.449697 13.165742 18.928847 C 12.721704 19.572999 12.216635 20.147619 11.637197 20.656208 L 13.964892 24.878964 C 15.675186 27.944837 16.670613 29.672657 16.959592 30.067343 C 17.264665 30.550489 17.420662 30.873143 17.419164 31.030385 C 17.420166 31.115677 17.363973 31.173205 17.248834 31.196302 C 17.142116 31.224317 17.051906 31.23374 16.973285 31.232991 C 16.896414 31.238912 16.837802 31.23291 16.787611 31.231827 L 13.035464 31.33277 C 12.85646 31.329855 12.715057 31.252903 12.617924 31.100164 C 12.520792 30.947425 12.377051 30.67146 12.200042 30.268768 C 12.090734 29.933858 11.896549 29.492898 11.609068 28.940969 C 11.16484 28.145007 10.401279 26.648629 9.309965 24.446914 L 7.613841 21.163436 L 7.711416 22.920201 L 7.883291 25.448839 C 8.013485 28.41619 8.123065 30.055731 8.21203 30.367464 C 8.236543 30.460842 8.251219 30.571062 8.249387 30.699874 C 8.247392 31.099651 8.035626 31.297834 7.61584 31.301092 C 7.480358 31.301011 7.369804 31.287256 7.27926 31.268249 C 6.925838 31.225567 6.059919 31.267518 4.689925 31.399021 C 3.759393 31.493582 3.192869 31.535361 2.993856 31.537699 Z M 7.414672 16.73838 C 7.749168 16.736124 8.046144 16.672421 8.308768 16.532183 C 8.932649 16.247201 9.248542 15.658077 9.24486 14.774983 C 9.245599 14.126003 9.143042 13.653859 8.947026 13.341711 C 8.74609 13.037984 8.491714 12.883747 8.183899 12.879 C 7.941365 12.878503 7.730014 12.969634 7.546344 13.139053 C 7.524918 13.166066 7.530089 13.321558 7.54852 13.60903 C 7.56695 13.896502 7.57871 14.185725 7.58205 14.47003 C 7.581554 14.712564 7.571969 14.893318 7.551544 15.005623 C 7.457254 15.379722 7.409988 15.769995 7.414663 16.168021 L 7.379734 16.469501 Z M 7.414672 16.73838" stroke="#000" stroke-width="1.06"/><path transform="scale(.56646) rotate(18.053 -53.518 738.644)" fill="none" d="M 2.992382 31.268205 C 2.50609 31.267146 2.267675 31.047486 2.266307 30.59825 L 2.261789 28.003171 L 2.397028 16.869353 C 2.391718 16.029743 2.33647 14.502876 2.222589 12.284332 L 2.09284 8.19245 C 2.093172 7.815189 2.236147 7.630781 2.526184 7.630533 C 2.641771 7.629122 2.826905 7.663066 3.0947 7.728091 C 3.355938 7.795253 3.569435 7.827206 3.728634 7.826085 C 4.343045 7.908685 5.084164 7.957237 5.952136 7.949935 C 6.547459 7.951721 7.116847 7.918442 7.647187 7.854374 C 7.981126 7.810803 8.214292 7.836345 8.346685 7.930997 C 8.483497 8.016957 8.545762 8.163479 8.544454 8.359735 C 8.549994 8.510241 8.529308 8.669295 8.491089 8.841317 C 8.457291 9.004645 8.445153 9.189925 8.445982 9.392737 L 8.377344 11.184825 C 8.288891 13.005131 8.247102 14.367798 8.245419 15.274964 L 8.314478 20.293244 C 8.335328 21.091524 8.34292 21.915884 8.346093 22.748937 L 8.282638 26.381582 L 8.245497 27.046452 L 8.278588 27.971295 L 8.347137 29.138433 L 13.100008 29.300942 L 17.057754 29.338214 L 17.121035 29.332093 C 17.254009 29.339521 17.332395 29.357489 17.356048 29.407803 C 17.377564 29.451561 17.383684 29.514842 17.370136 29.584535 C 17.358724 29.660784 17.356151 29.719646 17.35586 29.763258 C 17.33561 29.856894 17.338867 30.02265 17.369906 30.273639 C 17.405364 30.515934 17.419161 30.736278 17.417853 30.932533 C 17.416836 31.085176 17.361667 31.182941 17.252345 31.225827 C 17.145161 31.275269 17.005485 31.291784 16.835456 31.281929 C 16.674119 31.276492 16.547701 31.266927 16.460477 31.266346 L 14.692622 31.160797 C 13.142974 31.034895 12.048682 30.970905 11.403191 30.970966 C 10.698837 30.968454 8.899321 31.03279 6.017753 31.159699 Z M 2.992382 31.268205" stroke="#000" stroke-width="1.06"/><path transform="scale(.56646) rotate(21.55 -32.594 672.097)" fill="none" d="M 2.922435 30.99797 C 2.507536 30.998714 2.29918 30.621322 2.2999 29.872208 L 2.326763 29.001557 L 2.262345 27.336569 L 2.222769 25.847125 L 2.190026 24.844317 C 2.105437 23.691458 2.065048 22.387689 2.059912 20.929129 C 2.065001 20.059662 2.103297 18.917586 2.190162 17.504248 C 2.280907 16.081963 2.333379 14.91946 2.329684 14.008978 L 2.296706 9.551265 C 2.277743 9.202874 2.266705 8.799455 2.264776 8.362782 C 2.264567 8.118197 2.426585 7.965242 2.74695 7.912862 C 3.064782 7.854069 3.395279 7.827344 3.749921 7.842984 C 4.108443 7.849676 4.355561 7.855881 4.48874 7.855183 L 5.679919 7.792532 C 6.612338 7.750516 7.366681 7.726929 7.945481 7.728184 C 9.301583 7.72644 10.740623 8.084892 12.265135 8.809954 C 13.799941 9.523536 15.136175 10.841945 16.290545 12.751168 C 17.442382 14.653977 18.022624 17.249617 18.01979 20.527793 C 18.023324 23.521717 17.31037 25.790277 15.878395 27.327058 C 14.448953 28.870254 12.947681 29.856099 11.374579 30.284593 C 9.797595 30.722034 8.487947 30.93527 7.450699 30.93713 L 4.726853 30.967458 C 4.238869 30.98965 3.634414 30.998528 2.922435 30.99797 Z M 8.014321 23.878687 C 8.612316 23.590623 9.167249 23.193525 9.679122 22.687391 C 10.785062 21.620421 11.33867 20.35639 11.339948 18.895296 C 11.338367 17.502059 10.805463 16.37797 9.739887 15.538389 C 9.272771 15.181632 8.754019 14.91941 8.178566 14.738894 C 8.222533 15.225693 8.245214 15.602272 8.246608 15.868631 C 8.249885 16.289944 8.224161 16.90065 8.184795 17.702097 C 8.134112 18.456114 8.107365 19.007911 8.1135 19.361368 C 8.112246 19.940167 8.086405 20.869728 8.044925 22.153931 C 8.024057 22.53288 8.013856 23.107799 8.014321 23.878687 Z M 8.014321 23.878687" stroke="#000" stroke-width="1.06"/></svg>